<svg xmlns="http://www.w3.org/2000/svg" viewBox="0 0 256 256"><defs><style>.cls-1,.cls-3{fill:none;}.cls-1,.cls-3,.cls-4{stroke:#000;}.cls-1{stroke-linejoin:round;stroke-width:6px;}.cls-2,.cls-4{fill:#455a64;}.cls-3,.cls-4{stroke-miterlimit:10;stroke-width:3px;}</style></defs><title>level-sprint-icons</title><g id="flag_fill"><g id="Layer_2" data-name="Layer 2"><g id="Layer_1-2" data-name="Layer 1-2"><path class="cls-1" d="M52.893,10.455H203.107A10.893,10.893,0,0,1,214,21.349V171.562a10.893,10.893,0,0,1-10.893,10.893H52.893A10.893,10.893,0,0,1,42,171.562V21.349A10.893,10.893,0,0,1,52.893,10.455Z"/></g></g><g id="Layer_2-2" data-name="Layer 2"><g id="Layer_1-2-2" data-name="Layer 1-2"><path class="cls-1" d="M150.819,204.476l-19.286,38.578a4.506,4.506,0,0,1-8.06,0l-19.292-38.577a4.507,4.507,0,0,1,4.03-6.522h38.578A4.506,4.506,0,0,1,150.819,204.476Z"/></g></g><polygon class="cls-2" points="141.517 120.511 148.058 114.265 150.968 122.578 144.35 128.75 141.517 120.511"/><polygon class="cls-2" points="150.968 122.578 157.767 116.237 160.794 124.728 153.913 130.991 150.968 122.578"/><polygon class="cls-2" points="164.757 109.72 172.767 104.745 175.145 111.667 167.869 118.289 164.757 109.72"/><polygon class="cls-2" points="147.216 137.086 153.913 130.991 156.893 139.506 150.117 145.521 147.216 137.086"/><polygon class="cls-2" points="160.794 124.728 167.869 118.289 171.02 126.965 163.858 133.323 160.794 124.728"/><polygon class="cls-2" points="175.145 111.667 182.631 104.854 185.968 113.697 178.387 120.426 175.145 111.667"/><polygon class="cls-2" points="156.893 139.506 163.858 133.323 166.96 142.023 159.91 148.123 156.893 139.506"/><polygon class="cls-2" points="171.02 126.965 178.387 120.426 181.67 129.295 174.211 135.749 171.02 126.965"/><polygon class="cls-2" points="144.17 87.35 150.711 81.104 153.621 89.418 147.003 95.589 144.17 87.35"/><polygon class="cls-2" points="157.43 74.688 164.335 68.093 167.41 76.559 160.42 83.077 157.43 74.688"/><polygon class="cls-2" points="171.434 61.314 178.736 54.341 181.989 62.963 174.596 69.857 171.434 61.314"/><polygon class="cls-2" points="153.621 89.418 160.42 83.077 163.447 91.567 156.566 97.831 153.621 89.418"/><polygon class="cls-2" points="167.41 76.559 174.596 69.857 177.798 78.507 170.522 85.129 167.41 76.559"/><polygon class="cls-2" points="149.869 103.925 156.566 97.831 159.546 106.345 152.769 112.36 149.869 103.925"/><polygon class="cls-2" points="163.447 91.567 170.522 85.129 173.673 93.805 166.511 100.162 163.447 91.567"/><polygon class="cls-2" points="177.798 78.507 185.284 71.694 188.62 80.536 181.04 87.265 177.798 78.507"/><polygon class="cls-2" points="159.546 106.345 166.511 100.162 169.613 108.862 162.563 114.963 159.546 106.345"/><polygon class="cls-2" points="173.673 93.805 181.04 87.265 184.323 96.134 176.863 102.589 173.673 93.805"/><polyline class="cls-3" points="151.544 109.388 139.606 119.336 152.87 154.486 189.347 123.315 180.062 99.44"/><polyline class="cls-3" points="142.922 86.839 155.523 120.663 192 89.492 178.736 54.341"/><polygon class="cls-4" points="64 145.201 182.715 34.445 185.368 47.046 65.99 158.466 64 145.201"/></g></svg>