<svg xmlns="http://www.w3.org/2000/svg" viewBox="0 0 256 256"><defs><style>.cls-1{fill:#455a64;stroke-miterlimit:10;stroke-width:4px;}.cls-1,.cls-2{stroke:#000;}.cls-2{fill:none;stroke-linejoin:round;stroke-width:6px;}</style></defs><title>level-sprint-icons</title><g id="spawn_fill"><path class="cls-1" d="M110.238,59.067l12.123-9.551,54.554,45.462,11.69-9.742.132.122a10.142,10.142,0,0,1-.218,15.1l-11.6,10.107L156.132,93.679l-25.978,21.432L149.638,132l-17.6,15.508a14.754,14.754,0,0,1-19.415.079h0L132.1,130.7l-24.03-20.133L87.94,127.451,67.683,110.717a10.142,10.142,0,0,1,.123-15.739h0L87.94,111.864,133.4,74.195,122.361,65.1l-12.34,9.742-.408-.379A10.142,10.142,0,0,1,110.238,59.067Z"/><circle class="cls-1" cx="166.524" cy="57.959" r="16.236"/></g><g id="flag_fill"><g id="Layer_2" data-name="Layer 2"><g id="Layer_1-2" data-name="Layer 1-2"><path class="cls-2" d="M52.893,10.455H203.107A10.893,10.893,0,0,1,214,21.349V171.562a10.893,10.893,0,0,1-10.893,10.893H52.893A10.893,10.893,0,0,1,42,171.562V21.349A10.893,10.893,0,0,1,52.893,10.455Z"/></g></g><g id="Layer_2-2" data-name="Layer 2"><g id="Layer_1-2-2" data-name="Layer 1-2"><path class="cls-2" d="M150.819,204.476l-19.286,38.578a4.506,4.506,0,0,1-8.06,0l-19.292-38.577a4.507,4.507,0,0,1,4.03-6.522h38.578A4.506,4.506,0,0,1,150.819,204.476Z"/></g></g></g></svg>