<svg xmlns="http://www.w3.org/2000/svg" viewBox="0 0 256 256"><defs><style>.cls-1{fill:none;stroke:#000;stroke-miterlimit:10;stroke-width:7px;}</style></defs><title>level-sprint-icons</title><g id="place_line"><polygon class="cls-1" points="195.325 59.855 195.325 176.032 114.012 176.032 115.63 169.995 126.812 128.265 85.082 139.446 79.149 141.034 79.149 59.855 195.325 59.855"/><line class="cls-1" x1="228" y1="59.855" x2="195.325" y2="59.855"/><line class="cls-1" x1="79.149" y1="59.855" x2="50.623" y2="59.855"/><line class="cls-1" x1="227.213" y1="176.032" x2="195.325" y2="176.032"/><line class="cls-1" x1="79.149" y1="59.855" x2="79.149" y2="28.218"/><line class="cls-1" x1="195.325" y1="208.706" x2="195.325" y2="176.032"/><line class="cls-1" x1="195.325" y1="59.855" x2="195.325" y2="28.218"/><polygon class="cls-1" points="126.812 128.265 115.63 169.995 114.012 176.032 104.448 211.725 88.36 195.636 56.214 227.782 28 199.568 60.146 167.422 43.352 150.628 79.149 141.034 85.082 139.446 126.812 128.265"/></g></svg>