<svg xmlns="http://www.w3.org/2000/svg" viewBox="0 0 256 256"><defs><style>.cls-1,.cls-3{fill:#455a64;}.cls-2{fill:none;}.cls-2,.cls-3{stroke:#000;stroke-miterlimit:10;stroke-width:6px;}</style></defs><title>level-sprint-icons</title><g id="flag_fill"><polygon class="cls-1" points="148.382 164.271 158.243 154.853 162.631 167.388 152.653 176.694 148.382 164.271"/><polygon class="cls-1" points="162.631 167.388 172.884 157.827 177.448 170.63 167.072 180.074 162.631 167.388"/><polygon class="cls-1" points="183.422 148 195.5 140.5 199.086 150.937 188.115 160.921 183.422 148"/><polygon class="cls-1" points="156.974 189.263 167.072 180.074 171.566 192.912 161.348 201.982 156.974 189.263"/><polygon class="cls-1" points="177.448 170.63 188.115 160.921 192.866 174.003 182.068 183.589 177.448 170.63"/><polygon class="cls-1" points="199.086 150.937 210.373 140.664 215.404 153.997 203.974 164.143 199.086 150.937"/><polygon class="cls-1" points="171.566 192.912 182.068 183.589 186.745 196.707 176.114 205.905 171.566 192.912"/><polygon class="cls-1" points="192.866 174.003 203.974 164.143 208.924 177.516 197.677 187.248 192.866 174.003"/><polygon class="cls-1" points="152.382 114.271 162.243 104.853 166.631 117.388 156.653 126.694 152.382 114.271"/><polygon class="cls-1" points="172.374 95.179 182.786 85.236 187.422 98 176.884 107.827 172.374 95.179"/><polygon class="cls-1" points="193.491 75.013 204.5 64.5 209.406 77.5 198.259 87.895 193.491 75.013"/><polygon class="cls-1" points="166.631 117.388 176.884 107.827 181.448 120.63 171.072 130.074 166.631 117.388"/><polygon class="cls-1" points="187.422 98 198.259 87.895 203.086 100.937 192.115 110.921 187.422 98"/><polygon class="cls-1" points="160.974 139.263 171.072 130.074 175.566 142.912 165.348 151.982 160.974 139.263"/><polygon class="cls-1" points="181.448 120.63 192.115 110.921 196.866 124.003 186.068 133.589 181.448 120.63"/><polygon class="cls-1" points="203.086 100.937 214.373 90.664 219.404 103.997 207.974 114.143 203.086 100.937"/><polygon class="cls-1" points="175.566 142.912 186.068 133.589 190.745 146.707 180.114 155.905 175.566 142.912"/><polygon class="cls-1" points="196.866 124.003 207.974 114.143 212.924 127.516 201.677 137.248 196.866 124.003"/><polyline class="cls-2" points="163.5 147.5 145.5 162.5 165.5 215.5 220.5 168.5 206.5 132.5"/><polyline class="cls-2" points="150.5 113.5 169.5 164.5 224.5 117.5 204.5 64.5"/><polygon class="cls-3" points="31.5 201.5 210.5 34.5 214.5 53.5 34.5 221.5 31.5 201.5"/></g></svg>