<svg xmlns="http://www.w3.org/2000/svg" viewBox="0 0 256 256"><defs><style>.cls-1{fill:#455a64;stroke:#000;stroke-miterlimit:10;stroke-width:6px;}</style></defs><title>level-sprint-icons</title><g id="move_fill"><path class="cls-1" d="M221,128l-37.51,37.52-.213-.312a17.511,17.511,0,0,1,2.086-22.247l.348-.348-47.431-5.124,5.551,47,.133-.133a17.511,17.511,0,0,1,22.54-1.881l.016.011L128,221,90.49,183.49l.3-.205a17.513,17.513,0,0,1,22.253,2.082l1.561,1.562,4.7-49.44-49.026,5.124,1.359,1.357a17.511,17.511,0,0,1,1.893,22.538l-.008.012L35,128,73.52,89.49h0a17.511,17.511,0,0,1-1.89,22.544l-1.354,1.352,49.026,5.125-4.7-49.452-1.567,1.569a17.512,17.512,0,0,1-22.251,2.094l-.3-.2L128,35l38.52,38.52-.011.008a17.511,17.511,0,0,1-22.539-1.9l-.139-.139-5.551,47.017,47.431-5.125-.344-.344a17.511,17.511,0,0,1-2.082-22.252l.205-.3Z"/></g></svg>