<svg xmlns="http://www.w3.org/2000/svg" viewBox="0 0 256 256"><defs><style>.cls-1{fill:none;stroke:#000;stroke-miterlimit:10;stroke-width:6px;}</style></defs><title>level-sprint-icons</title><g id="move_line"><path class="cls-1" d="M221,128l-37.51,37.52-.213-.312a17.51,17.51,0,0,1,2.086-22.246l.348-.348-47.431-5.125,5.551,47.005.133-.133a17.511,17.511,0,0,1,22.54-1.882l.016.012L128,221,90.49,183.487l.3-.2a17.512,17.512,0,0,1,22.253,2.082l1.561,1.561,4.7-49.44L70.276,142.61l1.359,1.357a17.51,17.51,0,0,1,1.893,22.538l-.008.011L35,128,73.52,89.487h0a17.51,17.51,0,0,1-1.89,22.543l-1.354,1.353,49.026,5.124-4.7-49.452-1.567,1.569a17.511,17.511,0,0,1-22.251,2.094l-.3-.2L128,35l38.52,38.519-.011.008A17.512,17.512,0,0,1,143.97,71.63l-.139-.139-5.551,47.016,47.431-5.124-.344-.344a17.512,17.512,0,0,1-2.082-22.252l.205-.3Z"/></g></svg>