<svg xmlns="http://www.w3.org/2000/svg" viewBox="0 0 256 256"><defs><style>.cls-1{fill:#455a64;stroke:#000;stroke-miterlimit:10;stroke-width:6px;}</style></defs><title>level-sprint-icons</title><g id="spawn_fill"><path class="cls-1" d="M102.312,73.929l17.532-13.813,78.9,65.747,16.906-14.089.191.176a14.668,14.668,0,0,1-.316,21.839l-16.781,14.616-30.056-24.42L131.115,154.98,159.293,179.4l-25.459,22.428a21.337,21.337,0,0,1-28.078.114h0l28.177-24.421L99.181,148.405,70.064,172.826l-29.3-24.2a14.669,14.669,0,0,1,.179-22.762h0l29.117,24.421,65.748-54.477L119.844,82.658,102,96.746l-.59-.547A14.668,14.668,0,0,1,102.312,73.929Z"/><circle class="cls-1" cx="183.714" cy="72.326" r="23.481"/></g></svg>